# xmcd CD database file
#
# Track frame offsets:
#	150
#	15682
#	31383
#	55247
#	72315
#	88664
#	104850
#	124273
#	142563
#	159143
#	180530
#	200128
#	218564
#	238584
#	256173
#
# Disc length: 3725 seconds
#
# Revision: 2
# Processed by: cddbd v1.5.2PL0 Copyright (c) Steve Scherf et al.
# Submitted via: CDex 1.51
#
DISCID=cd0e8b0f
DTITLE=Grupo Compay Segundo - Siempre Compay
DYEAR=2004
DGENRE=Salsa
TTITLE0=Será Cuando Tú Digas
TTITLE1=Lupina
TTITLE2=Tributo
TTITLE3=Todo Lo Tengo Ya
TTITLE4=El Vendedor De Agua
TTITLE5=Cuando Me Dijiste Adiós
TTITLE6=Todo A Tus Pies
TTITLE7=Perfidia
TTITLE8=No Hagas El Amor Borracho
TTITLE9=Ausencia
TTITLE10=Just A Gigoló
TTITLE11=Anita
TTITLE12=Vicenta
TTITLE13=Yo Canto En El Llano
TTITLE14=La Muerte Impía (Homenaje A Compay Segundo)
EXTD=YEAR: 2004
EXTT0=
EXTT1=
EXTT2=
EXTT3=
EXTT4=
EXTT5=
EXTT6=
EXTT7=
EXTT8=
EXTT9=
EXTT10=
EXTT11=
EXTT12=
EXTT13=
EXTT14=
PLAYORDER=
